<?xml version="1.0" encoding="utf-8"?>
<!-- Generator: Adobe Illustrator 28.0.0, SVG Export Plug-In . SVG Version: 6.00 Build 0)  -->
<svg version="1.1" id="Layer_1" xmlns="http://www.w3.org/2000/svg" xmlns:xlink="http://www.w3.org/1999/xlink" x="0px" y="0px"
	 viewBox="0 0 452 452" style="enable-background:new 0 0 452 452;" xml:space="preserve">
<style type="text/css">
	.st0{fill-rule:evenodd;clip-rule:evenodd;fill:#E14F61;}
	.st1{fill-rule:evenodd;clip-rule:evenodd;fill:url(#SVGID_1_);}
	.st2{fill-rule:evenodd;clip-rule:evenodd;fill:url(#SVGID_00000049197708870553872770000013977074583190733202_);}
	.st3{fill-rule:evenodd;clip-rule:evenodd;fill:url(#SVGID_00000044155644076402015090000005203766917260233630_);}
	.st4{fill-rule:evenodd;clip-rule:evenodd;fill:url(#SVGID_00000051358123105650421460000007691644689369998495_);}
	.st5{fill-rule:evenodd;clip-rule:evenodd;fill:url(#SVGID_00000085237925819701841120000013305407277424771481_);}
</style>
<g transform="matrix(1.03719,0,0,1.09203,-27.3078,-39.9432)">
	<path class="st0" d="M461.7,119.5c0-45.6-39-82.7-87.1-82.7H113.4c-48.1,0-87.1,37.1-87.1,82.7v248.1c0,45.6,39,82.7,87.1,82.7
		h261.2c48.1,0,87.1-37.1,87.1-82.7L461.7,119.5L461.7,119.5z"/>
</g>
<g id="Circles" transform="matrix(1,0,0,1,0,25)">
	<g transform="matrix(0.932271,0,0,0.932271,98.4674,31.0909)">
		
			<radialGradient id="SVGID_1_" cx="-1261.7122" cy="-489.778" r="0.3763" gradientTransform="matrix(203.9341 203.9341 -203.9341 203.9341 157383.6875 357326.625)" gradientUnits="userSpaceOnUse">
			<stop  offset="0" style="stop-color:#FFEFEF;stop-opacity:0.95"/>
			<stop  offset="1" style="stop-color:#FFA0A9;stop-opacity:0.9"/>
		</radialGradient>
		<circle class="st1" cx="4.1" cy="182.2" r="44.1"/>
	</g>
	<g transform="matrix(0.932271,0,0,0.932271,623.467,31.0909)">
		
			<radialGradient id="SVGID_00000154414226816666625890000005608141756313949115_" cx="-2429.4431" cy="-489.2397" r="0.3763" gradientTransform="matrix(203.9341 203.9341 -203.9341 203.9341 395202.9375 595357.0625)" gradientUnits="userSpaceOnUse">
			<stop  offset="0" style="stop-color:#FFEFEF;stop-opacity:0.95"/>
			<stop  offset="1" style="stop-color:#FFA0A9;stop-opacity:0.9"/>
		</radialGradient>
		
			<circle style="fill-rule:evenodd;clip-rule:evenodd;fill:url(#SVGID_00000154414226816666625890000005608141756313949115_);" cx="-426.6" cy="182.2" r="44.1"/>
	</g>
	<g transform="matrix(0.932271,0,0,0.932271,1148.47,31.0909)">
		
			<radialGradient id="SVGID_00000030458326463127967780000007900002748281011892_" cx="-3597.1819" cy="-488.7016" r="0.3763" gradientTransform="matrix(203.9341 203.9341 -203.9341 203.9341 633023.75 833389.0625)" gradientUnits="userSpaceOnUse">
			<stop  offset="0" style="stop-color:#FFEFEF;stop-opacity:0.95"/>
			<stop  offset="1" style="stop-color:#FFA0A9;stop-opacity:0.9"/>
		</radialGradient>
		
			<circle style="fill-rule:evenodd;clip-rule:evenodd;fill:url(#SVGID_00000030458326463127967780000007900002748281011892_);" cx="-857.3" cy="182.2" r="44.1"/>
	</g>
	<g transform="matrix(1.30176,0,0,0.940198,-193.861,57.4101)">
		
			<radialGradient id="SVGID_00000065762876281097140630000016798429760472382383_" cx="-484.4318" cy="-472.3303" r="0.3763" gradientTransform="matrix(-158.8668 0 -80.1597 -881.5247 -114529.3203 -416218.125)" gradientUnits="userSpaceOnUse">
			<stop  offset="0" style="stop-color:#FFEFEF;stop-opacity:0.8"/>
			<stop  offset="1" style="stop-color:#FFA0A9;stop-opacity:0.9"/>
		</radialGradient>
		<path style="fill-rule:evenodd;clip-rule:evenodd;fill:url(#SVGID_00000065762876281097140630000016798429760472382383_);" d="
			M291.1,146.5c-0.2,2-0.3,4.1-0.3,6.2c0,2.1,0.1,4.2,0.3,6.2h-32.3c0.2-2,0.3-4.1,0.3-6.2c0-2.1-0.1-4.2-0.3-6.2H291.1z"/>
	</g>
	<g transform="matrix(1.30176,0,0,0.940198,333.563,57.4101)">
		
			<radialGradient id="SVGID_00000064324855842989312150000008126271625741465510_" cx="-1199.8417" cy="-472.3303" r="0.3763" gradientTransform="matrix(-158.8668 0 -80.1597 -881.5247 -228494.0625 -416218.125)" gradientUnits="userSpaceOnUse">
			<stop  offset="0" style="stop-color:#FFEFEF;stop-opacity:0.8"/>
			<stop  offset="1" style="stop-color:#FFA0A9;stop-opacity:0.9"/>
		</radialGradient>
		<path style="fill-rule:evenodd;clip-rule:evenodd;fill:url(#SVGID_00000064324855842989312150000008126271625741465510_);" d="
			M-19.2,146.5c-0.2,2-0.3,4.1-0.3,6.2c0,2.1,0.1,4.2,0.3,6.2h-32.3c0.2-2,0.3-4.1,0.3-6.2c0-2.1-0.1-4.2-0.3-6.2H-19.2z"/>
	</g>
</g>
</svg>
